G04 ---------------------------- Layer name :BOTTOM SILK LAYER*
G04 EasyEDA v5.3.2, Thu, 15 Mar 2018 12:19:24 GMT*
G04 Gerber Generator version 0.2*
G04 Scale: 100 percent, Rotated: No, Reflected: No *
G04 Dimensions in millimeters *
G04 leading zeros omitted , absolute positions ,3 integer and 3 decimal *
%FSLAX33Y33*%
%MOMM*%
G90*
G71D02*

%ADD72C,0.299974*%

%LPD*%
G54D72*
G01X11103Y33396D02*
G01X10648Y33851D01*
G01X9965Y34306D01*
G01X9056Y34760D01*
G01X7920Y34987D01*
G01X7011Y34987D01*
G01X5876Y34760D01*
G01X4966Y34306D01*
G01X4283Y33851D01*
G01X3828Y33396D01*
G01X9647Y32062D02*
G01X9376Y32334D01*
G01X8967Y32608D01*
G01X8421Y32880D01*
G01X7737Y33017D01*
G01X7194Y33017D01*
G01X6511Y32880D01*
G01X5964Y32608D01*
G01X5555Y32334D01*
G01X5284Y32062D01*
G01X8192Y30603D02*
G01X8103Y30694D01*
G01X7966Y30785D01*
G01X7783Y30874D01*
G01X7557Y30920D01*
G01X7374Y30920D01*
G01X7148Y30874D01*
G01X6965Y30785D01*
G01X6828Y30694D01*
G01X6739Y30603D01*
G01X12556Y34604D02*
G01X11921Y35242D01*
G01X10966Y35877D01*
G01X9693Y36514D01*
G01X8103Y36832D01*
G01X6828Y36832D01*
G01X5238Y36514D01*
G01X3965Y35877D01*
G01X3010Y35242D01*
G01X2375Y34604D01*
M00*
M02*
