G04 ---------------------------- Layer name :BOTTOM LAYER*
G04 EasyEDA v5.3.2, Thu, 15 Mar 2018 12:19:24 GMT*
G04 Gerber Generator version 0.2*
G04 Scale: 100 percent, Rotated: No, Reflected: No *
G04 Dimensions in millimeters *
G04 leading zeros omitted , absolute positions ,3 integer and 3 decimal *
%FSLAX33Y33*%
%MOMM*%
G90*
G71D02*

%ADD10C,0.254000*%
%ADD11C,0.619760*%
%ADD69C,3.499866*%
%ADD70R,0.350012X1.499997*%
%ADD71R,1.099998X1.099998*%

%LPD*%
G54D10*
G01X7688Y24441D02*
G01X4966Y24472D01*
G01X4966Y22471D01*
G01X4969Y22468D01*
G01X7688Y24441D02*
G01X9965Y24472D01*
G01X10066Y24372D01*
G01X10066Y22508D01*
G01X10041Y22484D01*
G01X7466Y6177D02*
G01X7466Y12598D01*
G01X9711Y14843D01*
G01X7466Y12598D02*
G01X7466Y12656D01*
G01X5279Y14843D01*
G01X13112Y14843D02*
G01X13112Y24459D01*
G01X13114Y24461D01*
G01X10658Y24461D01*
G01X10658Y22504D01*
G01X10679Y22484D01*
G01X4329Y22471D02*
G01X4329Y24398D01*
G01X4266Y24461D01*
G01X1938Y24461D01*
G01X1895Y24419D01*
G01X1895Y14859D01*
G01X1880Y14843D01*
G54D70*
G01X3648Y22470D03*
G01X5609Y22470D03*
G01X4969Y22470D03*
G01X4329Y22470D03*
G01X3648Y16845D03*
G01X5609Y16845D03*
G01X4969Y16845D03*
G01X4328Y16845D03*
G01X9360Y22483D03*
G01X11320Y22483D03*
G01X10680Y22483D03*
G01X10040Y22483D03*
G01X9360Y16858D03*
G01X11320Y16858D03*
G01X10680Y16858D03*
G01X10040Y16858D03*
G54D71*
G01X13112Y14843D03*
G01X9711Y14843D03*
G01X13109Y8547D03*
G01X9711Y8547D03*
G01X5279Y14843D03*
G01X1880Y14843D03*
G01X5276Y8547D03*
G01X1878Y8547D03*
G54D69*
G01X7466Y3573D03*
G54D11*
G01X7466Y6177D03*
G01X7689Y24439D03*
M00*
M02*
