G04 ---------------------------- Layer name :KeepOutLayer*
G04 EasyEDA v5.3.2, Thu, 15 Mar 2018 12:19:24 GMT*
G04 Gerber Generator version 0.2*
G04 Scale: 100 percent, Rotated: No, Reflected: No *
G04 Dimensions in millimeters *
G04 leading zeros omitted , absolute positions ,3 integer and 3 decimal *
%FSLAX33Y33*%
%MOMM*%
G90*
G71D02*

%ADD10C,0.254000*%
G54D10*
G01X7500Y0D02*
G01X6644Y48D01*
G01X5816Y190D01*
G01X5021Y419D01*
G01X4264Y734D01*
G01X3553Y1125D01*
G01X2890Y1587D01*
G01X2280Y2118D01*
G01X1732Y2710D01*
G01X1249Y3357D01*
G01X838Y4056D01*
G01X502Y4800D01*
G01X248Y5582D01*
G01X78Y6403D01*
G01X5Y7251D01*
G01X0Y7754D01*
G01X0Y42677D01*
G01X63Y42981D01*
G01X210Y43238D01*
G01X347Y43375D01*
G01X508Y43479D01*
G01X787Y43561D01*
G01X14211Y43561D01*
G01X14490Y43479D01*
G01X14724Y43312D01*
G01X14897Y43073D01*
G01X14988Y42783D01*
G01X14991Y37663D01*
G01X14998Y7754D01*
G01X14996Y7251D01*
G01X14919Y6403D01*
G01X14752Y5582D01*
G01X14498Y4800D01*
G01X14160Y4056D01*
G01X13749Y3357D01*
G01X13266Y2710D01*
G01X12717Y2118D01*
G01X12110Y1587D01*
G01X11447Y1125D01*
G01X10736Y734D01*
G01X9979Y419D01*
G01X9184Y190D01*
G01X8356Y48D01*

%LPD*%
M00*
M02*
