G04 ---------------------------- Layer name :TOP SOLDER LAYER*
G04 EasyEDA v5.3.2, Thu, 15 Mar 2018 12:19:24 GMT*
G04 Gerber Generator version 0.2*
G04 Scale: 100 percent, Rotated: No, Reflected: No *
G04 Dimensions in millimeters *
G04 leading zeros omitted , absolute positions ,3 integer and 3 decimal *
%FSLAX33Y33*%
%MOMM*%
G90*
G71D02*

%ADD12R,0.431800X35.703129*%
%ADD13R,14.203172X0.431800*%
%ADD14R,13.743178X0.431800*%
%ADD15R,0.431800X35.243008*%
%ADD16R,13.283174X0.431800*%
%ADD17R,0.431800X34.783131*%
%ADD18R,12.823175X0.431800*%
%ADD19R,0.431800X34.323020*%
%ADD20R,12.363176X0.431800*%
%ADD21R,0.431800X33.863026*%
%ADD22R,11.903202X0.431800*%
%ADD23R,0.431800X33.403134*%
%ADD24R,11.443178X0.431800*%
%ADD25R,0.431800X32.943135*%
%ADD26R,10.983214X0.431800*%
%ADD27R,0.431800X32.483135*%
%ADD28R,10.523179X0.431800*%
%ADD29R,0.431800X32.023136*%
%ADD30R,10.063226X0.431800*%
%ADD31R,0.431800X31.563056*%
%ADD32R,9.603181X0.431800*%
%ADD33R,0.431800X31.103062*%
%ADD34R,9.143182X0.431800*%
%ADD35R,0.431800X30.643139*%
%ADD36R,8.683183X0.431800*%
%ADD37R,0.431800X30.183140*%
%ADD38R,8.223184X0.431800*%
%ADD39R,0.431800X29.723080*%
%ADD40R,7.763256X0.431800*%
%ADD41R,0.431800X29.263086*%
%ADD42R,7.303262X0.431800*%
%ADD43R,0.431800X28.803143*%
%ADD44R,6.843268X0.431800*%
%ADD45R,0.431800X28.343098*%
%ADD46R,6.383274X0.431800*%
%ADD47R,0.431800X27.883145*%
%ADD48R,5.923189X0.431800*%
%ADD49R,0.431800X27.423146*%
%ADD50R,5.463189X0.431800*%
%ADD51R,0.431800X26.963146*%
%ADD52R,5.003292X0.431800*%
%ADD53R,0.431800X26.503147*%
%ADD54R,4.543298X0.431800*%
%ADD55R,0.431800X26.043148*%
%ADD56R,4.083304X0.431800*%
%ADD57R,0.431800X25.583149*%
%ADD58R,3.623193X0.431800*%
%ADD59R,0.431800X25.123150*%
%ADD60R,3.163316X0.431800*%
%ADD61R,0.431800X24.663151*%
%ADD62R,2.703195X0.431800*%
%ADD63R,0.431800X24.203152*%
%ADD64R,2.243196X0.431800*%
%ADD65R,0.431800X23.743158*%
%ADD66R,1.783197X0.431800*%
%ADD67R,0.431800X23.283164*%
%ADD68R,1.323198X0.431800*%
%ADD69C,3.703066*%

%LPD*%
G54D12*
G01X605Y25273D03*
G54D13*
G01X7491Y42909D03*
G54D12*
G01X14377Y25272D03*
G54D14*
G01X7721Y7625D03*
G54D15*
G01X1067Y25030D03*
G54D16*
G01X7491Y42439D03*
G54D17*
G01X13917Y25266D03*
G54D18*
G01X7721Y8091D03*
G54D19*
G01X1525Y25036D03*
G54D20*
G01X7489Y41986D03*
G54D21*
G01X13454Y25272D03*
G54D22*
G01X7716Y8559D03*
G54D23*
G01X1980Y25046D03*
G54D24*
G01X7482Y41531D03*
G54D25*
G01X12986Y25275D03*
G54D26*
G01X7712Y9024D03*
G54D27*
G01X2437Y25048D03*
G54D28*
G01X7485Y41075D03*
G54D29*
G01X12530Y25279D03*
G54D30*
G01X7706Y9483D03*
G54D31*
G01X2890Y25050D03*
G54D32*
G01X7488Y40624D03*
G54D33*
G01X12071Y25286D03*
G54D34*
G01X7715Y9954D03*
G54D35*
G01X3360Y25063D03*
G54D36*
G01X7487Y40168D03*
G54D37*
G01X11613Y25292D03*
G54D38*
G01X7713Y10414D03*
G54D39*
G01X3817Y25061D03*
G54D40*
G01X7483Y39705D03*
G54D41*
G01X11149Y25289D03*
G54D42*
G01X7714Y10872D03*
G54D43*
G01X4277Y25061D03*
G54D44*
G01X7482Y39245D03*
G54D45*
G01X10686Y25285D03*
G54D46*
G01X7709Y11329D03*
G54D47*
G01X4735Y25055D03*
G54D48*
G01X7479Y38780D03*
G54D49*
G01X10227Y25282D03*
G54D50*
G01X7710Y11787D03*
G54D51*
G01X5194Y25054D03*
G54D52*
G01X7478Y38319D03*
G54D53*
G01X9764Y25282D03*
G54D54*
G01X7708Y12247D03*
G54D55*
G01X5650Y25052D03*
G54D56*
G01X7478Y37858D03*
G54D57*
G01X9303Y25282D03*
G54D58*
G01X7706Y12701D03*
G54D59*
G01X6109Y25047D03*
G54D60*
G01X7472Y37393D03*
G54D61*
G01X8837Y25276D03*
G54D62*
G01X7700Y13161D03*
G54D63*
G01X6564Y25045D03*
G54D64*
G01X7468Y36949D03*
G54D65*
G01X8372Y25292D03*
G54D66*
G01X7685Y13634D03*
G54D67*
G01X7009Y25057D03*
G54D68*
G01X7450Y36482D03*
G54D69*
G01X7466Y3573D03*
M00*
M02*
